<?xml version="1.0" encoding="UTF-8" standalone="no"?>
<svg
   width="401"
   height="401"
   viewBox="0 0 106.11521 106.1046"
   version="1.1"
   id="svg2"
   xml:space="preserve"
   xmlns="http://www.w3.org/2000/svg"
   xmlns:svg="http://www.w3.org/2000/svg"><defs
     id="defs2" /><g
     transform="matrix(6.5743758,0,0,6.5743758,-1283.3858,590.40805)"
     id="g2"><path
       fill="#ce202f"
       stroke="#ffffff"
       stroke-miterlimit="10"
       stroke-width="0.929223"
       d="m 209.86,-81.74 a 6.579347,6.579347 0 1 1 -13.15869,0 6.579347,6.579347 0 0 1 13.15869,0"
       id="path1" /><path
       fill="#ffffff"
       d="m 201.7,-84.31 a 0.17639,0.17639 0 0 1 0.17286,-0.158751 h 2.82224 a 0.17639,0.17639 0 0 1 0.16581,0.158751 l 0.16933,2.243681 a 0.1481676,0.1481676 0 0 1 -0.14816,0.162279 h -3.20325 c -0.0882,0 -0.15522,-0.07056 -0.14816,-0.162279 z m 1.26295,-0.800811 h 0.63853 c 0.0882,0 0.16228,0.07056 0.16228,0.162279 0,0.08467 -0.0705,0.158751 -0.16228,0.158751 h -0.63853 c -0.0882,0 -0.16228,-0.07056 -0.16228,-0.158751 0,-0.09172 0.0706,-0.162279 0.16228,-0.162279 m 1.12184,4.487362 a 0.32103,0.32103 0 0 1 0,-0.64206 c 0.17639,0 0.3175,0.14464 0.3175,0.32103 a 0.317502,0.317502 0 0 1 -0.3175,0.32103 m -1.60515,0 c -0.17639,0 -0.3175,-0.141112 -0.3175,-0.317502 a 0.3210298,0.3210298 0 1 1 0.3175,0.317502 m -0.3175,0.64206 h 2.24368 c 0.52917,0 1.32646,-0.423336 1.28059,-0.96309 l -0.3175,-3.845302 c -0.0353,-0.359835 -0.29281,-0.642059 -0.64559,-0.642059 h -2.88221 c -0.35278,0 -0.61031,0.282224 -0.63853,0.642059 l -0.32103,3.845302 c -0.0494,0.532698 0.75142,0.96309 1.28059,0.96309 M 205.68,-78.06 h 0.63853 l -1.28059,-1.601621 h -0.63853 l 0.45156,0.564448 h -3.15033 l 0.45156,-0.564448 h -0.63853 L 200.23308,-78.06 h 0.635 l 0.45861,-0.564448 h 3.90175 z"
       id="path2" /></g></svg>
